<?xml version="1.0" standalone="no"?>
<!DOCTYPE svg PUBLIC "-//W3C//DTD SVG 20010904//EN"
 "http://www.w3.org/TR/2001/REC-SVG-20010904/DTD/svg10.dtd">
<svg version="1.0" xmlns="http://www.w3.org/2000/svg"
 width="191.000000pt" height="52.000000pt" viewBox="0 0 191.000000 52.000000"
 preserveAspectRatio="xMidYMid meet">

<g transform="translate(0.000000,52.000000) scale(0.100000,-0.100000)"
fill="#000000" stroke="none">
<path d="M577 366 c-49 -18 -64 -32 -88 -77 -25 -50 -25 -140 0 -195 27 -59
79 -89 156 -89 39 0 74 7 100 20 l40 20 3 78 3 77 -71 0 -70 0 0 -30 c0 -28 2
-30 40 -30 36 0 40 -3 40 -25 0 -43 -90 -72 -141 -45 -31 17 -49 64 -49 130 0
55 3 65 29 91 22 22 39 29 68 29 42 0 83 -23 83 -45 0 -11 8 -13 33 -8 17 3
34 7 35 9 8 6 -25 59 -48 76 -34 25 -115 32 -163 14z"/>
<path d="M1340 190 l0 -180 25 0 c19 0 25 5 25 22 0 20 1 20 18 5 25 -23 71
-31 104 -18 68 26 94 159 43 219 -32 39 -75 49 -116 28 -18 -9 -34 -16 -36
-16 -1 0 -3 27 -3 60 l0 60 -30 0 -30 0 0 -180z m161 23 c8 -9 14 -39 14 -68
0 -61 -16 -85 -56 -85 -36 0 -59 32 -59 85 0 22 7 51 16 63 18 26 65 30 85 5z"/>
<path d="M950 260 c-24 -24 -30 -25 -30 -5 0 9 -9 15 -25 15 l-25 0 0 -130 0
-130 30 0 30 0 0 79 c0 103 10 131 48 131 34 0 63 44 36 54 -27 10 -43 7 -64
-14z"/>
<path d="M1110 274 c-19 -8 -60 -45 -60 -55 0 -15 54 -17 65 -2 7 9 23 13 45
11 27 -2 35 -8 35 -23 0 -16 -13 -23 -64 -36 -69 -18 -91 -37 -91 -79 0 -62
69 -97 131 -66 39 20 39 20 39 1 0 -10 11 -15 35 -15 33 0 34 1 25 26 -6 14
-10 65 -10 113 0 73 -3 91 -19 105 -19 17 -105 30 -131 20z m90 -158 c0 -49
-68 -78 -89 -38 -13 24 -1 41 35 52 46 13 54 11 54 -14z"/>
</g>
</svg>
